<mxfile host="app.diagrams.net" agent="Mozilla/5.0 (Windows NT 10.0; Win64; x64) AppleWebKit/537.36 (KHTML, like Gecko) Chrome/133.0.0.0 Safari/537.36 Edg/133.0.0.0" version="26.0.16">
  <diagram name="หน้า-1" id="Ld2onCMsW_b1a_ty7cUv">
    <mxGraphModel dx="1026" dy="521" grid="1" gridSize="10" guides="1" tooltips="1" connect="1" arrows="1" fold="1" page="1" pageScale="1" pageWidth="827" pageHeight="1169" math="0" shadow="0">
      <root>
        <mxCell id="0" />
        <mxCell id="1" parent="0" />
        <mxCell id="Q_2Xei_-vxetxCIwBqh8-3" value="" style="group" vertex="1" connectable="0" parent="1">
          <mxGeometry x="140" y="150" width="80" height="80" as="geometry" />
        </mxCell>
        <mxCell id="Q_2Xei_-vxetxCIwBqh8-1" value="" style="ellipse;whiteSpace=wrap;html=1;strokeWidth=3;fontFamily=Tahoma;fillColor=#bac8d3;strokeColor=#23445d;" vertex="1" parent="Q_2Xei_-vxetxCIwBqh8-3">
          <mxGeometry width="80" height="80" as="geometry" />
        </mxCell>
        <mxCell id="Q_2Xei_-vxetxCIwBqh8-2" value="A" style="text;html=1;align=center;verticalAlign=middle;whiteSpace=wrap;rounded=0;fontSize=20;fontStyle=1" vertex="1" parent="Q_2Xei_-vxetxCIwBqh8-3">
          <mxGeometry x="10" y="25" width="60" height="30" as="geometry" />
        </mxCell>
        <mxCell id="Q_2Xei_-vxetxCIwBqh8-5" value="" style="group" vertex="1" connectable="0" parent="1">
          <mxGeometry x="470" y="150" width="80" height="80" as="geometry" />
        </mxCell>
        <mxCell id="Q_2Xei_-vxetxCIwBqh8-6" value="" style="ellipse;whiteSpace=wrap;html=1;strokeWidth=3;fontFamily=Tahoma;fillColor=#bac8d3;strokeColor=#23445d;" vertex="1" parent="Q_2Xei_-vxetxCIwBqh8-5">
          <mxGeometry width="80" height="80" as="geometry" />
        </mxCell>
        <mxCell id="Q_2Xei_-vxetxCIwBqh8-7" value="C" style="text;html=1;align=center;verticalAlign=middle;whiteSpace=wrap;rounded=0;fontSize=20;fontStyle=1" vertex="1" parent="Q_2Xei_-vxetxCIwBqh8-5">
          <mxGeometry x="10" y="25" width="60" height="30" as="geometry" />
        </mxCell>
        <mxCell id="Q_2Xei_-vxetxCIwBqh8-8" value="" style="group" vertex="1" connectable="0" parent="1">
          <mxGeometry x="140" y="420" width="80" height="80" as="geometry" />
        </mxCell>
        <mxCell id="Q_2Xei_-vxetxCIwBqh8-9" value="" style="ellipse;whiteSpace=wrap;html=1;strokeWidth=3;fontFamily=Tahoma;fillColor=#bac8d3;strokeColor=#23445d;" vertex="1" parent="Q_2Xei_-vxetxCIwBqh8-8">
          <mxGeometry width="80" height="80" as="geometry" />
        </mxCell>
        <mxCell id="Q_2Xei_-vxetxCIwBqh8-10" value="B" style="text;html=1;align=center;verticalAlign=middle;whiteSpace=wrap;rounded=0;fontSize=20;fontStyle=1" vertex="1" parent="Q_2Xei_-vxetxCIwBqh8-8">
          <mxGeometry x="10" y="25" width="60" height="30" as="geometry" />
        </mxCell>
        <mxCell id="Q_2Xei_-vxetxCIwBqh8-14" value="" style="group" vertex="1" connectable="0" parent="1">
          <mxGeometry x="470" y="420" width="80" height="80" as="geometry" />
        </mxCell>
        <mxCell id="Q_2Xei_-vxetxCIwBqh8-15" value="" style="ellipse;whiteSpace=wrap;html=1;strokeWidth=3;fontFamily=Tahoma;fillColor=#bac8d3;strokeColor=#23445d;" vertex="1" parent="Q_2Xei_-vxetxCIwBqh8-14">
          <mxGeometry width="80" height="80" as="geometry" />
        </mxCell>
        <mxCell id="Q_2Xei_-vxetxCIwBqh8-16" value="D" style="text;html=1;align=center;verticalAlign=middle;whiteSpace=wrap;rounded=0;fontSize=20;fontStyle=1" vertex="1" parent="Q_2Xei_-vxetxCIwBqh8-14">
          <mxGeometry x="10" y="25" width="60" height="30" as="geometry" />
        </mxCell>
        <mxCell id="Q_2Xei_-vxetxCIwBqh8-17" value="" style="group" vertex="1" connectable="0" parent="1">
          <mxGeometry x="300" y="620" width="80" height="80" as="geometry" />
        </mxCell>
        <mxCell id="Q_2Xei_-vxetxCIwBqh8-18" value="" style="ellipse;whiteSpace=wrap;html=1;strokeWidth=3;fontFamily=Tahoma;fillColor=#bac8d3;strokeColor=#23445d;" vertex="1" parent="Q_2Xei_-vxetxCIwBqh8-17">
          <mxGeometry width="80" height="80" as="geometry" />
        </mxCell>
        <mxCell id="Q_2Xei_-vxetxCIwBqh8-19" value="E" style="text;html=1;align=center;verticalAlign=middle;whiteSpace=wrap;rounded=0;fontSize=20;fontStyle=1" vertex="1" parent="Q_2Xei_-vxetxCIwBqh8-17">
          <mxGeometry x="10" y="25" width="60" height="30" as="geometry" />
        </mxCell>
        <mxCell id="Q_2Xei_-vxetxCIwBqh8-24" style="rounded=0;orthogonalLoop=1;jettySize=auto;html=1;exitX=0.5;exitY=1;exitDx=0;exitDy=0;entryX=0.5;entryY=0;entryDx=0;entryDy=0;strokeColor=none;strokeWidth=2;" edge="1" parent="1" source="Q_2Xei_-vxetxCIwBqh8-1" target="Q_2Xei_-vxetxCIwBqh8-9">
          <mxGeometry relative="1" as="geometry" />
        </mxCell>
        <mxCell id="Q_2Xei_-vxetxCIwBqh8-25" value="" style="endArrow=none;html=1;rounded=0;exitX=0.5;exitY=0;exitDx=0;exitDy=0;strokeWidth=4;" edge="1" parent="1" source="Q_2Xei_-vxetxCIwBqh8-9">
          <mxGeometry width="50" height="50" relative="1" as="geometry">
            <mxPoint x="179" y="370" as="sourcePoint" />
            <mxPoint x="179" y="230" as="targetPoint" />
          </mxGeometry>
        </mxCell>
        <mxCell id="Q_2Xei_-vxetxCIwBqh8-26" value="" style="endArrow=none;html=1;rounded=0;exitX=0;exitY=0.5;exitDx=0;exitDy=0;strokeWidth=4;entryX=1;entryY=0.5;entryDx=0;entryDy=0;" edge="1" parent="1" source="Q_2Xei_-vxetxCIwBqh8-6" target="Q_2Xei_-vxetxCIwBqh8-1">
          <mxGeometry width="50" height="50" relative="1" as="geometry">
            <mxPoint x="311" y="360" as="sourcePoint" />
            <mxPoint x="310" y="170" as="targetPoint" />
          </mxGeometry>
        </mxCell>
        <mxCell id="Q_2Xei_-vxetxCIwBqh8-27" value="" style="endArrow=none;html=1;rounded=0;exitX=0.5;exitY=1;exitDx=0;exitDy=0;strokeWidth=4;entryX=0.5;entryY=0;entryDx=0;entryDy=0;" edge="1" parent="1" source="Q_2Xei_-vxetxCIwBqh8-6" target="Q_2Xei_-vxetxCIwBqh8-15">
          <mxGeometry width="50" height="50" relative="1" as="geometry">
            <mxPoint x="510" y="240" as="sourcePoint" />
            <mxPoint x="510" y="420" as="targetPoint" />
          </mxGeometry>
        </mxCell>
        <mxCell id="Q_2Xei_-vxetxCIwBqh8-28" value="" style="endArrow=none;html=1;rounded=0;exitX=0;exitY=0.5;exitDx=0;exitDy=0;strokeWidth=4;entryX=1;entryY=0.5;entryDx=0;entryDy=0;" edge="1" parent="1" source="Q_2Xei_-vxetxCIwBqh8-15" target="Q_2Xei_-vxetxCIwBqh8-9">
          <mxGeometry width="50" height="50" relative="1" as="geometry">
            <mxPoint x="470" y="470" as="sourcePoint" />
            <mxPoint x="220" y="470" as="targetPoint" />
          </mxGeometry>
        </mxCell>
        <mxCell id="Q_2Xei_-vxetxCIwBqh8-30" value="" style="endArrow=none;html=1;rounded=0;exitX=0.271;exitY=0.958;exitDx=0;exitDy=0;strokeWidth=4;entryX=1;entryY=0;entryDx=0;entryDy=0;exitPerimeter=0;" edge="1" parent="1" source="Q_2Xei_-vxetxCIwBqh8-15" target="Q_2Xei_-vxetxCIwBqh8-18">
          <mxGeometry width="50" height="50" relative="1" as="geometry">
            <mxPoint x="480" y="470" as="sourcePoint" />
            <mxPoint x="380" y="630" as="targetPoint" />
          </mxGeometry>
        </mxCell>
      </root>
    </mxGraphModel>
  </diagram>
</mxfile>